<svg width="52" height="52" viewBox="0 0 52 52" fill="none" xmlns="http://www.w3.org/2000/svg">
<path fill-rule="evenodd" clip-rule="evenodd" d="M26 50C39.2548 50 50 39.2548 50 26C50 12.7452 39.2548 2 26 2C12.7452 2 2 12.7452 2 26C2 39.2548 12.7452 50 26 50ZM26 52C40.3594 52 52 40.3594 52 26C52 11.6406 40.3594 0 26 0C11.6406 0 0 11.6406 0 26C0 40.3594 11.6406 52 26 52Z" fill="white"/>
<path fill-rule="evenodd" clip-rule="evenodd" d="M50 26C50 39.2548 39.2548 50 26 50C12.7452 50 2 39.2548 2 26C2 12.7452 12.7452 2 26 2C39.2548 2 50 12.7452 50 26ZM32.1605 19.2953L38.5245 25.6593C38.915 26.0498 38.915 26.683 38.5245 27.0735L32.1605 33.4375C31.77 33.828 31.1368 33.828 30.7463 33.4375C30.3558 33.0469 30.3558 32.4138 30.7463 32.0233L35.4032 27.3664H12.4512C11.8989 27.3664 11.4512 26.9187 11.4512 26.3664C11.4512 25.8141 11.8989 25.3664 12.4512 25.3664H35.4032L30.7463 20.7095C30.3558 20.319 30.3558 19.6859 30.7463 19.2953C31.1368 18.9048 31.77 18.9048 32.1605 19.2953Z" fill="white"/>
</svg>
