<svg width="194" height="58" viewBox="0 0 194 58" fill="none" xmlns="http://www.w3.org/2000/svg">
<g clip-path="url(#clip0_142_1835)">
<path fill-rule="evenodd" clip-rule="evenodd" d="M10.2865 48.8515C11.0595 50.7883 12.6991 52.3463 14.8607 52.9256C16.9823 53.494 18.3222 53.4874 19.444 53.4819C20.2518 53.478 20.9465 53.4746 21.7385 53.6868C22.5305 53.899 23.1303 54.2493 23.8278 54.6566C24.7964 55.2222 25.9534 55.8978 28.0749 56.4663C30.2366 57.0455 32.4355 56.5159 34.0733 55.2252C34.9747 54.429 35.6419 53.5455 36.1091 52.598C36.5696 51.6644 36.9562 50.2554 36.9046 48.7043C36.8858 48.1358 36.8433 47.708 36.7493 47.2679C36.6811 46.9486 36.6429 46.814 36.5329 46.5066C36.4626 46.3215 36.2668 45.9066 36.1686 45.7346C35.1454 43.9424 33.7987 41.5837 33.7987 41.5837C33.5205 41.0951 33.6169 40.4955 33.9968 40.1167L32.89 38.1996L32.8544 38.217L32.8052 38.2407C29.9826 39.5893 26.5652 39.5697 23.6514 37.8874C22.2274 37.0653 21.0872 35.9404 20.2651 34.641C19.9989 34.2203 19.766 33.7812 19.5677 33.3282C18.3578 30.565 18.4325 27.2831 20.0564 24.4704C20.8067 23.1708 21.8091 22.1076 22.9663 21.3068C23.3806 21.02 23.8148 20.7669 24.2644 20.5486C27.0975 19.1732 30.5406 19.1821 33.4734 20.8753C34.6478 21.5534 35.6292 22.4374 36.3984 23.4553L36.4129 23.4746L36.443 23.5148L36.4662 23.5462L36.4835 23.5698C36.7671 23.9567 37.0204 24.3621 37.2426 24.7824C38.769 27.67 38.8221 31.2548 37.0684 34.2923C36.3048 35.6149 35.28 36.6928 34.0969 37.4983L35.2074 39.4219C35.732 39.2791 36.3073 39.5016 36.5885 39.9956L39.3294 44.7967C39.3294 44.7967 39.7247 45.3864 40.0432 45.7067C40.3672 46.0326 40.9665 46.4364 40.9665 46.4364C42.2074 47.0903 43.4893 47.5009 44.79 47.5861C45.8442 47.6552 46.9429 47.5192 48.0831 47.1366C50.0198 46.3636 51.5779 44.7241 52.1571 42.5624C52.7256 40.4408 52.719 39.1011 52.7134 37.9795C52.7094 37.1718 52.706 36.4772 52.9182 35.6852C53.1304 34.8931 53.4807 34.2932 53.8881 33.5956C54.4537 32.6269 55.1294 31.4698 55.6978 29.3482C56.2771 27.1865 55.7475 24.9876 54.4568 23.3498C53.6606 22.4484 52.7771 21.7812 51.8296 21.314C49.0239 19.9303 45.3749 20.2239 41.7166 21.3643C44.5282 18.7684 46.6023 15.7584 46.8067 12.6404C46.8758 11.5862 46.7397 10.4875 46.3572 9.34729C45.5841 7.41057 43.9446 5.8525 41.7829 5.27327C39.6614 4.70481 38.3217 4.71143 37.2 4.71697C36.3923 4.72096 35.6977 4.7244 34.9057 4.51218C34.1137 4.29996 33.5138 3.94965 32.8162 3.54233C31.8474 2.97665 30.6903 2.30102 28.5688 1.73255C26.4071 1.15333 24.2082 1.6829 22.5703 2.97362C21.6689 3.76982 21.0018 4.65329 20.5345 5.6008C19.1576 8.39289 19.4417 12.0201 20.5683 15.6605C17.9859 12.8813 14.998 10.8369 11.9036 10.6341C10.8494 10.565 9.75072 10.701 8.61049 11.0836C6.67377 11.8566 5.11569 13.4962 4.53647 15.6578C3.96801 17.7794 3.97458 19.1193 3.98008 20.2411C3.98404 21.0489 3.98745 21.7436 3.77523 22.5356C3.56301 23.3276 3.21273 23.9274 2.80544 24.6249C2.2398 25.5935 1.56421 26.7505 0.995746 28.872C0.416526 31.0337 0.946092 33.2326 2.23681 34.8704C3.03301 35.7718 3.91649 36.439 4.864 36.9063C7.64172 38.2761 11.246 38.0021 14.8674 36.89C12.0861 39.4732 10.0399 42.4626 9.83698 45.5584C9.76788 46.6126 9.90392 47.7113 10.2865 48.8515Z" fill="#556832"/>
<path fill-rule="evenodd" clip-rule="evenodd" d="M30.0866 35.8104L31.2927 35.4875C31.467 35.424 31.6386 35.3537 31.8069 35.2768C32.2865 35.0577 32.7399 34.7847 33.1563 34.4612C33.8774 33.9011 34.4875 33.1895 34.9301 32.3436C35.9994 30.3001 35.8362 27.96 34.7103 26.0872C34.4433 25.6431 34.1223 25.2253 33.7507 24.844C33.2 24.2789 32.5384 23.7939 31.7776 23.422C29.7139 22.4134 27.3891 22.4666 25.4925 23.3716C25.0164 23.5988 24.5672 23.8796 24.156 24.2108C23.4749 24.7594 22.8978 25.446 22.4741 26.2557C21.5217 28.0759 21.5145 29.8396 22.3271 31.5906C22.5498 32.0706 22.8563 32.5332 23.311 33.0415C23.6156 33.3819 23.9828 33.69 24.2914 33.9489C24.3613 34.0076 24.4282 34.0638 24.4907 34.1172C24.4907 34.1172 24.9472 34.5341 25.236 35.0416C25.5249 35.5491 25.4189 36.1836 25.4189 36.1836C25.4031 36.2963 25.3531 36.4019 25.3067 36.4999C25.2397 36.6413 25.1804 36.7666 25.2429 36.8733C25.3691 37.0888 25.8715 36.9192 25.8715 36.9192L30.0866 35.8104Z" fill="#556832"/>
</g>
<path d="M79.9849 39.0574C78.1937 39.0574 76.614 38.7215 75.2458 38.0498C73.9024 37.3782 72.8451 36.4079 72.0739 35.1392C71.3276 33.8456 70.9171 32.2908 70.8425 30.4747C70.8176 30.1016 70.8052 29.6165 70.8052 29.0194C70.8052 28.3975 70.8176 27.8875 70.8425 27.4895C70.9171 25.6735 71.3276 24.1311 72.0739 22.8623C72.8451 21.5687 73.9024 20.5861 75.2458 19.9144C76.614 19.2427 78.1937 18.9069 79.9849 18.9069C81.577 18.9069 82.9328 19.1308 84.0523 19.5785C85.1717 20.0015 86.0922 20.5612 86.8136 21.2578C87.5351 21.9294 88.0699 22.6384 88.4182 23.3848C88.7914 24.1062 88.9904 24.7654 89.0153 25.3625C89.0401 25.6361 88.9531 25.86 88.7541 26.0342C88.5799 26.1834 88.3685 26.2581 88.1197 26.2581H84.8359C84.5871 26.2581 84.3881 26.1959 84.2389 26.0715C84.1145 25.9471 83.9901 25.7605 83.8657 25.5117C83.4925 24.5167 82.995 23.8201 82.3731 23.4221C81.776 22.9992 81.0048 22.7877 80.0595 22.7877C78.8156 22.7877 77.8205 23.1857 77.0742 23.9818C76.3528 24.753 75.9672 25.9844 75.9174 27.6761C75.8677 28.6214 75.8677 29.4921 75.9174 30.2882C75.9672 32.0047 76.3528 33.2485 77.0742 34.0197C77.8205 34.7909 78.8156 35.1765 80.0595 35.1765C81.0297 35.1765 81.8133 34.9775 82.4104 34.5795C83.0074 34.1566 83.4925 33.4476 83.8657 32.4525C83.9901 32.2037 84.1145 32.0171 84.2389 31.8927C84.3881 31.7684 84.5871 31.7062 84.8359 31.7062H88.1197C88.3685 31.7062 88.5799 31.7932 88.7541 31.9674C88.9531 32.1166 89.0401 32.3281 89.0153 32.6017C88.9904 33.0495 88.866 33.5595 88.6421 34.1317C88.4431 34.679 88.1072 35.2512 87.6346 35.8482C87.1868 36.4204 86.6146 36.9552 85.9181 37.4528C85.2215 37.9255 84.3757 38.311 83.3806 38.6096C82.4104 38.9081 81.2785 39.0574 79.9849 39.0574ZM92.6457 38.6842C92.3969 38.6842 92.1854 38.5971 92.0113 38.423C91.8372 38.2489 91.7501 38.0374 91.7501 37.7886V34.0944C91.7501 33.8207 91.8372 33.5968 92.0113 33.4227C92.1854 33.2485 92.3969 33.1615 92.6457 33.1615H96.3772C96.626 33.1615 96.8375 33.2485 97.0116 33.4227C97.1858 33.5968 97.2728 33.8207 97.2728 34.0944V37.7886C97.2728 38.0374 97.1858 38.2489 97.0116 38.423C96.8375 38.5971 96.626 38.6842 96.3772 38.6842H92.6457ZM101.959 38.6842C101.71 38.6842 101.499 38.5971 101.324 38.423C101.15 38.2489 101.063 38.0374 101.063 37.7886V13.0856C101.063 12.8368 101.15 12.6254 101.324 12.4512C101.499 12.2771 101.71 12.19 101.959 12.19H105.056C105.305 12.19 105.516 12.2771 105.69 12.4512C105.865 12.6254 105.952 12.8368 105.952 13.0856V37.7886C105.952 38.0374 105.865 38.2489 105.69 38.423C105.516 38.5971 105.305 38.6842 105.056 38.6842H101.959ZM118.551 39.0574C116.561 39.0574 114.882 38.7091 113.514 38.0125C112.17 37.316 111.138 36.3333 110.416 35.0646C109.72 33.7958 109.322 32.3157 109.222 30.624C109.197 30.1762 109.185 29.6289 109.185 28.9821C109.185 28.3353 109.197 27.788 109.222 27.3402C109.322 25.6237 109.732 24.1435 110.454 22.8996C111.2 21.6309 112.245 20.6483 113.588 19.9517C114.957 19.2551 116.611 18.9069 118.551 18.9069C120.492 18.9069 122.134 19.2551 123.477 19.9517C124.845 20.6483 125.89 21.6309 126.611 22.8996C127.358 24.1435 127.781 25.6237 127.88 27.3402C127.905 27.788 127.918 28.3353 127.918 28.9821C127.918 29.6289 127.905 30.1762 127.88 30.624C127.781 32.3157 127.37 33.7958 126.649 35.0646C125.952 36.3333 124.92 37.316 123.552 38.0125C122.208 38.7091 120.541 39.0574 118.551 39.0574ZM118.551 35.3631C119.87 35.3631 120.89 34.9526 121.611 34.1317C122.333 33.2859 122.731 32.0544 122.805 30.4374C122.83 30.0643 122.843 29.5792 122.843 28.9821C122.843 28.3851 122.83 27.9 122.805 27.5268C122.731 25.9098 122.333 24.6908 121.611 23.8699C120.89 23.024 119.87 22.6011 118.551 22.6011C117.233 22.6011 116.213 23.024 115.491 23.8699C114.77 24.6908 114.372 25.9098 114.297 27.5268C114.272 27.9 114.26 28.3851 114.26 28.9821C114.26 29.5792 114.272 30.0643 114.297 30.4374C114.372 32.0544 114.77 33.2859 115.491 34.1317C116.213 34.9526 117.233 35.3631 118.551 35.3631ZM137.293 38.6842C136.895 38.6842 136.596 38.5971 136.397 38.423C136.223 38.224 136.074 38.0001 135.949 37.7513L128.971 20.4368C128.922 20.3124 128.897 20.2005 128.897 20.101C128.897 19.8771 128.971 19.6905 129.121 19.5412C129.295 19.3671 129.494 19.28 129.718 19.28H132.74C133.039 19.28 133.263 19.3671 133.412 19.5412C133.561 19.6905 133.661 19.8398 133.71 19.989L138.673 33.0868L143.636 19.989C143.686 19.8398 143.786 19.6905 143.935 19.5412C144.084 19.3671 144.308 19.28 144.607 19.28H147.667C147.866 19.28 148.04 19.3671 148.189 19.5412C148.363 19.6905 148.45 19.8771 148.45 20.101C148.45 20.2005 148.438 20.3124 148.413 20.4368L141.398 37.7513C141.298 38.0001 141.149 38.224 140.95 38.423C140.751 38.5971 140.452 38.6842 140.054 38.6842H137.293ZM158.588 39.0574C155.826 39.0574 153.637 38.2613 152.02 36.6692C150.403 35.077 149.532 32.8132 149.408 29.8777C149.383 29.6289 149.371 29.318 149.371 28.9448C149.371 28.5468 149.383 28.2358 149.408 28.0119C149.507 26.1212 149.93 24.5042 150.677 23.1609C151.448 21.7926 152.505 20.7478 153.848 20.0263C155.192 19.28 156.771 18.9069 158.588 18.9069C160.603 18.9069 162.294 19.3298 163.662 20.1756C165.031 20.9965 166.063 22.1533 166.76 23.646C167.456 25.1137 167.805 26.8178 167.805 28.7582V29.5418C167.805 29.7906 167.717 30.0021 167.543 30.1762C167.369 30.3504 167.145 30.4374 166.872 30.4374H154.483C154.483 30.4374 154.483 30.4747 154.483 30.5494C154.483 30.624 154.483 30.6862 154.483 30.736C154.508 31.6067 154.669 32.4152 154.968 33.1615C155.291 33.8829 155.752 34.4675 156.349 34.9153C156.971 35.3631 157.704 35.587 158.55 35.587C159.247 35.587 159.831 35.4875 160.304 35.2885C160.777 35.0646 161.162 34.8158 161.461 34.5422C161.759 34.2685 161.971 34.0446 162.095 33.8705C162.319 33.5719 162.493 33.3978 162.618 33.3481C162.767 33.2734 162.978 33.2361 163.252 33.2361H166.461C166.71 33.2361 166.909 33.3107 167.058 33.46C167.232 33.6093 167.307 33.7958 167.282 34.0197C167.257 34.4178 167.046 34.9029 166.648 35.4751C166.275 36.0472 165.727 36.607 165.006 37.1543C164.284 37.7016 163.376 38.1618 162.282 38.5349C161.212 38.8832 159.981 39.0574 158.588 39.0574ZM154.483 27.3029H162.73V27.191C162.73 26.2207 162.568 25.3749 162.244 24.6535C161.921 23.9072 161.448 23.335 160.826 22.937C160.205 22.5141 159.458 22.3026 158.588 22.3026C157.717 22.3026 156.971 22.5141 156.349 22.937C155.727 23.335 155.254 23.9072 154.931 24.6535C154.632 25.3749 154.483 26.2207 154.483 27.191V27.3029ZM171.728 38.6842C171.479 38.6842 171.268 38.5971 171.094 38.423C170.92 38.2489 170.833 38.0374 170.833 37.7886V20.2129C170.833 19.9393 170.92 19.7154 171.094 19.5412C171.268 19.3671 171.479 19.28 171.728 19.28H174.751C175 19.28 175.211 19.3671 175.385 19.5412C175.584 19.7154 175.684 19.9393 175.684 20.2129V21.7429C176.256 20.9468 176.99 20.3373 177.885 19.9144C178.806 19.4915 179.863 19.28 181.057 19.28H182.587C182.861 19.28 183.072 19.3671 183.221 19.5412C183.396 19.7154 183.483 19.9268 183.483 20.1756V22.8623C183.483 23.1111 183.396 23.3226 183.221 23.4967C183.072 23.6708 182.861 23.7579 182.587 23.7579H179.676C178.482 23.7579 177.549 24.0938 176.878 24.7654C176.231 25.4122 175.908 26.3327 175.908 27.5268V37.7886C175.908 38.0374 175.821 38.2489 175.646 38.423C175.472 38.5971 175.248 38.6842 174.975 38.6842H171.728Z" fill="#556832"/>
<defs>
<clipPath id="clip0_142_1835">
<rect width="56.8621" height="56.8621" fill="white" transform="translate(0 0.534912)"/>
</clipPath>
</defs>
</svg>
