<svg width="305" height="131" viewBox="0 0 305 131" fill="none" xmlns="http://www.w3.org/2000/svg">
<path d="M3.3194 58.4692C3.14942 58.1232 2.99661 57.823 2.86098 57.5685C2.71919 57.3405 2.63331 57.1116 2.60334 56.8818C2.59363 56.6846 2.63983 56.4865 2.74193 56.2874C2.72962 56.3403 2.8194 56.1941 3.0113 55.8489C3.19703 55.5302 3.42061 55.1088 3.68204 54.5849C3.96372 54.0936 4.2027 53.6062 4.39898 53.1228L5.76551 50.3081C5.70297 50.0986 5.76237 49.9035 5.94373 49.723C6.15765 49.5222 6.38479 49.3245 6.62513 49.1299L9.3815 49.3131C9.82878 49.306 10.3689 49.1395 11.0019 48.8136C11.6614 48.4939 12.3067 48.1152 12.938 47.6775C13.5692 47.2399 14.0926 46.8466 14.5081 46.4979C15.6896 45.4922 16.7165 44.4923 17.5889 43.4981C18.4939 42.4837 19.3258 41.4243 20.0846 40.3201C20.876 39.1956 21.6595 37.9857 22.435 36.6904C23.2431 35.3749 24.1409 33.9132 25.1286 32.3053C25.4156 32.1494 25.6766 31.8064 25.9116 31.2763C26.1466 30.7462 26.295 30.3491 26.3565 30.085C26.1434 29.9239 25.9515 29.8513 25.7807 29.8671C25.6099 29.883 25.425 29.8399 25.226 29.7378C24.8526 29.4279 24.6227 29.0401 24.5364 28.5743C24.4764 28.1147 24.5393 27.7255 24.7251 27.4068C24.8633 27.4112 25.0055 27.4583 25.1517 27.548C25.304 27.6114 25.4991 27.6708 25.7368 27.7263C25.9745 27.7817 26.258 27.8199 26.5873 27.841C26.8638 27.8498 27.2887 27.8792 27.8619 27.9293C28.4351 27.9794 28.9686 28.0203 29.4626 28.0519C29.983 28.0897 30.2889 28.0914 30.3805 28.0571C31.5146 28.2101 32.5104 28.3588 33.368 28.5031C34.2582 28.6271 35.1026 28.7683 35.9012 28.9266C36.706 29.0586 37.5706 29.2324 38.4952 29.4479C38.9442 29.5527 39.3229 29.7802 39.6311 30.1306C39.9657 30.4871 40.1388 30.8199 40.1503 31.129C40.1089 31.4257 39.8841 31.9721 39.4756 32.7681C39.0672 33.5641 38.5558 34.5032 37.9414 35.5854C37.3269 36.6676 36.6575 37.8066 35.933 39.0024C35.2147 40.1718 34.4762 41.3086 33.7174 42.4128C32.985 43.5232 32.3129 44.4945 31.7011 45.3266C31.3357 45.9377 30.9246 46.566 30.4678 47.2114C30.0373 47.8631 29.5875 48.538 29.1183 49.2363C28.9141 49.6343 28.6804 50.0394 28.4172 50.4515C28.1865 50.8433 27.9304 51.2849 27.6487 51.7762C27.6584 51.9735 27.7069 52.124 27.794 52.2279C27.8874 52.3054 28.1119 52.3577 28.4676 52.385C29.1852 52.413 29.6162 52.4161 29.7606 52.394C29.9376 52.3517 30.1238 52.2698 30.3192 52.1483C30.3518 52.128 30.4341 52.1333 30.5662 52.1641C30.7247 52.2011 30.8506 52.2583 30.944 52.3358C31.4556 52.65 31.8135 53.0259 32.0179 53.4635C32.2284 53.8746 32.309 54.1859 32.2597 54.3972C32.0098 55.2302 31.5829 56.1054 30.979 57.023C30.3954 57.9731 29.7387 58.8783 29.0089 59.7387C28.3055 60.6051 27.6501 61.3853 27.0427 62.0793C26.8569 62.398 26.761 62.5706 26.7548 62.597C26.7689 62.656 26.7566 62.7088 26.7179 62.7555C26.7055 62.8083 26.5242 62.9889 26.1738 63.2971C25.9784 63.4186 25.7639 63.3825 25.5306 63.1889C25.3237 63.0014 25.1321 62.7478 24.956 62.4282C24.8001 62.1412 24.6948 61.9356 24.6402 61.8115C24.6287 61.5024 24.6996 61.1987 24.8527 60.9002C25.0059 60.6017 25.2761 60.2191 25.6635 59.7523C26.4259 58.8718 27.1556 58.0114 27.8529 57.1713C28.5501 56.3313 29.0417 55.5964 29.3278 54.9669L29.1243 54.5852C29.0002 54.6398 28.6546 54.6288 28.0876 54.5523C27.5267 54.4494 26.8998 54.3311 26.2068 54.1973C25.5403 54.0698 24.953 53.9607 24.4449 53.87C23.9695 53.7592 23.7317 53.7037 23.7317 53.7037C23.6243 53.5673 23.5177 53.4867 23.4121 53.4621C23.339 53.4172 23.1347 53.3974 22.7993 53.4027L20.2845 52.8999C20.0996 52.8568 19.9411 52.8198 19.8091 52.789C19.6831 52.7318 19.5348 52.7112 19.364 52.727C18.811 52.7095 18.3893 52.6669 18.0987 52.5991C17.8407 52.5111 17.4119 52.439 16.8123 52.3827C16.7595 52.3704 16.4892 52.3352 16.0014 52.2772C15.5136 52.2191 14.9333 52.1395 14.2606 52.0384C13.6143 51.9434 12.965 51.8616 12.3125 51.793C11.6927 51.7041 11.1652 51.6369 10.7303 51.5911C10.3279 51.5252 10.1531 51.4983 10.2059 51.5107C9.57198 51.3628 9.10136 51.3506 8.79409 51.4739C8.48066 51.6236 8.14609 51.6848 7.79037 51.6576C7.31679 52.4941 6.83398 53.3703 6.34192 54.286C5.87012 55.2344 5.45862 56.0436 5.1074 56.7137C4.7826 57.39 4.59776 57.7646 4.55286 57.8377C4.48333 58.0165 4.35392 58.1534 4.16463 58.2485C3.9956 58.3762 3.71385 58.4498 3.3194 58.4692ZM13.9513 49.9609C14.3211 50.0471 14.9084 50.1562 15.7132 50.2882C16.5443 50.4263 17.4579 50.5697 18.4537 50.7184C19.476 50.8732 20.4454 51.0157 21.362 51.1458C22.3112 51.2558 23.1089 51.3582 23.7552 51.4532C24.4015 51.5482 24.7541 51.5887 24.8131 51.5746C25.144 50.8719 25.4728 50.2384 25.7994 49.6739C26.1585 49.0892 26.5085 48.5442 26.8491 48.0387C27.2224 47.513 27.5793 46.9975 27.92 46.492C27.9464 46.4982 28.1014 46.3115 28.3848 45.932C28.6744 45.526 29.0151 45.0206 29.4068 44.4156C29.8311 43.7904 30.2554 43.1652 30.6797 42.54C31.1102 41.8884 31.4826 41.3068 31.7968 40.7952C32.1375 40.2898 32.3721 39.9406 32.5006 39.7478C33.733 37.807 34.7563 36.1657 35.5706 34.8237C36.4174 33.4615 37.0085 32.3599 37.3438 31.519C36.9132 31.335 36.325 31.17 35.5793 31.024C34.866 30.8577 34.107 30.7085 33.3023 30.5766C32.4975 30.4446 31.7363 30.3646 31.0187 30.3365C30.3275 30.3146 29.7654 30.3367 29.3322 30.4028L28.1451 32.0896C28.0615 32.2093 27.789 32.661 27.3278 33.4447C26.8929 34.2346 26.3001 35.2243 25.5492 36.414C24.8247 37.6098 23.9964 38.8927 23.0641 40.2629C22.1381 41.6066 21.1592 42.9381 20.1274 44.2572C19.1019 45.5499 18.0543 46.6981 16.9846 47.702C15.9414 48.7121 14.9303 49.4651 13.9513 49.9609ZM42.564 57.8026C41.8984 58.1488 41.1866 58.2752 40.4285 58.182C39.6968 58.0949 39.0214 57.826 38.4024 57.3753C37.7895 56.8982 37.3324 56.2903 37.0312 55.5516C36.7177 54.8658 36.5811 54.1376 36.6215 53.3672C36.668 52.5704 36.8858 51.5767 37.2748 50.3862C37.5943 49.3745 38.1647 48.4213 38.986 47.5266C39.8135 46.6055 40.7322 45.831 41.742 45.2031C42.7783 44.5813 43.7428 44.2074 44.6356 44.0814C45.0934 43.9096 45.4513 43.8678 45.7093 43.9558C45.9999 44.0235 46.4296 44.1516 46.9984 44.3399C47.5874 44.5608 48.0088 44.7844 48.2624 45.0107C48.5424 45.2431 48.7441 45.5129 48.8674 45.8202C49.1712 46.3088 49.343 46.7666 49.3827 47.1936C49.4285 47.5943 49.4083 47.9795 49.3221 48.3493C49.0809 48.9058 48.5184 49.5266 47.6345 50.2117C46.7832 50.8766 45.7544 51.3469 44.5482 51.6227C43.9239 51.6721 43.2715 51.6035 42.5908 51.417C41.9102 51.2304 41.3823 50.9263 41.0072 50.5046C40.5545 50.1762 40.2151 50.1388 39.9889 50.3925C39.7688 50.6197 39.4695 51.2462 39.0911 52.272C38.7513 53.2511 38.6581 54.0092 38.8114 54.5463C38.9708 55.0569 39.2658 55.4042 39.6964 55.5882C40.2001 55.8171 40.591 55.9918 40.8693 56.1124C41.1801 56.2127 41.5909 56.1831 42.1015 56.0237C42.5858 55.8581 42.8838 55.7744 42.9956 55.7726C43.1136 55.7444 43.2051 55.7101 43.2703 55.6696C43.368 55.6088 43.5798 55.4771 43.9055 55.2746C44.1335 55.1328 44.3096 55.0346 44.4337 54.98C44.564 54.899 44.6952 54.8739 44.8273 54.9047C44.9594 54.9354 45.0629 55.0292 45.1377 55.1859C45.2187 55.3162 45.3059 55.4201 45.3993 55.4976C45.6634 55.5592 45.6793 55.73 45.4469 56.01C45.2409 56.2962 44.8742 56.6145 44.3469 56.965C43.8257 57.2891 43.2314 57.5683 42.564 57.8026ZM44.4831 49.3933C44.8045 49.329 45.1514 49.215 45.5238 49.0511C45.9024 48.8609 46.2312 48.6451 46.5103 48.4038C46.8219 48.1423 47.0024 47.9059 47.0517 47.6945C47.1379 47.3247 47.037 46.9809 46.7491 46.6631C46.4673 46.3189 45.9614 46.1591 45.2315 46.1839C44.9225 46.1954 44.5461 46.3165 44.1024 46.5473C43.6648 46.7516 43.2312 46.9986 42.8016 47.2884C42.3983 47.5843 42.0572 47.8529 41.7781 48.0941C41.5254 48.3416 41.4194 48.4979 41.4599 48.5631C41.5083 48.7136 41.7082 48.8716 42.0596 49.0371C42.4171 49.1762 42.8234 49.2848 43.2786 49.3631C43.7603 49.4476 44.1618 49.4577 44.4831 49.3933ZM46.0984 59.9219C46.0051 59.8444 45.8844 59.7049 45.7365 59.5033C45.6149 59.3078 45.5066 59.1155 45.4115 58.9262C45.3507 58.8284 45.3001 58.747 45.2596 58.6819C45.2252 58.5903 45.1847 58.5251 45.1381 58.4864C45.1812 58.3015 45.2516 58.1787 45.3493 58.1179C45.4735 58.0633 45.6007 57.9955 45.731 57.9144C45.8736 57.7806 46.0638 57.7414 46.3015 57.7968C46.5392 57.8523 46.7395 57.8293 46.9024 57.7281C47.458 57.4955 48.0298 57.2529 48.6179 57.0001C49.2061 56.7473 49.7303 56.41 50.1908 55.9882C50.6838 55.5461 51.186 55.0644 51.6975 54.5431C52.209 54.0218 52.7042 53.5106 53.1831 53.0095C53.3318 52.8493 53.5805 52.5591 53.9292 52.1391C54.2778 51.719 54.6101 51.3091 54.9261 50.9094C55.2747 50.4893 55.4838 50.1899 55.5533 50.0112C55.3341 49.8765 55.1249 49.7581 54.9259 49.656C54.7595 49.5336 54.59 49.4245 54.4174 49.3285C54.2659 48.9033 54.1831 48.6612 54.169 48.6022C54.1611 48.5168 54.2064 48.2627 54.3049 47.8401C54.3789 47.5231 54.5967 47.365 54.9586 47.3659C55.7678 47.3596 56.4691 47.3978 57.0625 47.4805C57.6824 47.5693 58.3014 47.6022 58.9195 47.5792C59.3139 47.5598 59.7722 47.6249 60.2944 47.7745C60.8165 47.9241 61.3171 48.1662 61.7961 48.5007C62.0092 48.6618 62.1766 48.8401 62.2981 49.0355C62.4196 49.231 62.5218 49.4497 62.6046 49.6919C62.8371 50.2474 62.9133 50.6969 62.8333 51.0403C62.7796 51.3898 62.6894 51.717 62.5627 52.0216C62.4359 52.3263 62.3924 52.6921 62.4321 53.1192C62.0809 53.7892 61.7481 54.3801 61.4339 54.8917C61.1258 55.3769 60.837 55.8387 60.5677 56.2773C60.3045 56.6894 60.0606 57.0781 59.8362 57.4436C59.6117 57.809 59.4136 58.1806 59.242 58.5583C59.0378 58.9563 58.8072 59.3482 58.5501 59.7339C58.2931 60.1196 58.0726 60.5277 57.8886 60.9583C57.7557 61.2893 57.5387 61.5033 57.2376 61.6002C56.9629 61.7033 56.6649 61.787 56.3435 61.8513C56.2317 61.8531 56.0529 61.7835 55.8073 61.6427C55.5942 61.4816 55.4035 61.284 55.2353 61.0498C55.2238 60.7407 55.259 60.4704 55.3408 60.2388C55.4227 60.0073 55.531 59.7818 55.6656 59.5626C55.7942 59.3697 56.0503 58.9281 56.4341 58.2378C56.8179 57.5474 57.2497 56.7708 57.7294 55.9079C58.2091 55.0449 58.6603 54.2449 59.0828 53.5079C59.5053 52.7709 59.7932 52.2531 59.9463 51.9546C60.1769 51.5628 60.2905 51.255 60.2869 51.0314C60.3098 50.8139 60.3164 50.6066 60.3066 50.4093C59.8012 50.0687 59.4336 49.9133 59.2038 49.9433C59.0066 49.953 58.7565 49.9504 58.4536 49.9355C58.2969 50.0103 58.1635 50.1046 58.0535 50.2182C57.9434 50.3318 57.8598 50.4515 57.8026 50.5774C57.3334 51.2757 56.9408 51.8248 56.6247 52.2245C56.3351 52.6305 56.0548 52.9968 55.7836 53.3235C55.5186 53.6238 55.218 53.9575 54.8817 54.3247C54.5718 54.6981 54.159 55.2146 53.6431 55.8741C53.3209 56.3003 52.9551 56.6746 52.5457 56.9969C52.1628 57.3254 51.8001 57.6864 51.4576 58.08L50.8924 58.5331C50.9188 58.5393 50.7885 58.6203 50.5015 58.7762C50.2145 58.9321 49.9275 59.088 49.6405 59.2438C49.3799 59.4059 49.2496 59.4869 49.2496 59.4869L47.7995 60.1514C47.6428 60.2263 47.406 60.2268 47.089 60.1529C46.772 60.079 46.4418 60.002 46.0984 59.9219ZM65.4084 63.3802C65.1848 63.3837 64.9013 63.3455 64.5579 63.2654C64.2206 63.1589 63.9261 63.0485 63.6743 62.934C63.455 62.7993 63.3546 62.6924 63.3731 62.6131C63.4039 62.4811 63.3533 62.3996 63.2212 62.3688C63.2212 62.3688 63.1675 62.3006 63.06 62.1641C62.979 62.0338 62.8319 61.8881 62.6188 61.727C62.4673 61.3018 62.4409 60.8779 62.5394 60.4552C62.6441 60.0061 62.9262 59.3339 63.3857 58.4383C63.6189 57.7964 64.0485 57.0889 64.6744 56.3158C65.3329 55.5224 66.0869 54.7373 66.9365 53.9606C67.786 53.1839 68.6404 52.5058 69.4997 51.9263C70.3854 51.353 71.1588 50.9624 71.82 50.7545C72.2761 50.4709 72.7713 50.3775 73.3058 50.4743C73.8402 50.5711 74.3144 50.807 74.7283 51.182C74.9617 51.3757 75.1765 51.6486 75.3729 52.0008C75.5693 52.3529 75.7464 52.7284 75.904 53.1273C76.0617 53.5261 76.1797 53.9157 76.2581 54.296C76.2696 54.6051 76.2477 54.8785 76.1922 55.1162C76.1694 55.3337 76.1078 55.5978 76.0074 55.9087C75.9335 56.2257 75.783 56.6919 75.556 57.3074C75.313 57.7521 75.0586 58.3055 74.7928 58.9676C74.5534 59.6359 74.3752 60.2211 74.2582 60.7229C74.0883 61.2125 74.058 61.5814 74.1672 61.8297C74.3028 62.0842 74.5639 62.159 74.9504 62.0541C75.3044 61.9695 75.6235 61.9743 75.9079 62.0685C76.1985 62.1363 76.4046 62.2679 76.5261 62.4633C76.6741 62.6649 76.7111 62.9242 76.6372 63.2412C76.5632 63.5582 76.3278 63.8514 75.9307 64.1209C75.5662 64.3701 75.1317 64.5613 74.6272 64.6943C74.1553 64.8071 73.7212 64.8172 73.325 64.7249C73.0344 64.6571 72.7971 64.4207 72.613 64.0157C72.4351 63.5843 72.299 63.093 72.2047 62.5419C72.143 61.9704 72.0883 61.4285 72.0407 60.9161L72.0155 59.9493L69.9329 61.1766C69.5033 61.4663 69.0798 61.7296 68.6625 61.9665C68.2777 62.1832 68.0303 62.3483 67.9203 62.4619C67.7328 62.6689 67.4264 62.8481 67.0012 62.9996C66.6023 63.1572 66.0714 63.2841 65.4084 63.3802ZM66.0724 61.0702C66.5831 60.9107 67.1875 60.6478 67.8857 60.2814C68.59 59.8886 69.2903 59.4531 69.9867 58.9749C70.6893 58.4703 71.287 57.997 71.7801 57.5549C72.3708 57.0521 72.8466 56.5642 73.2075 56.0913C73.5685 55.6185 73.8572 55.1566 74.0737 54.7058C74.0358 54.3906 73.935 54.0468 73.7711 53.6743C73.6135 53.2755 73.4453 53.0413 73.2665 52.9718C72.6854 52.8363 71.9784 53.0613 71.1455 53.647C70.3453 54.2124 69.5428 54.8469 68.7382 55.5505C68.6017 55.6579 68.4071 55.8354 68.1545 56.0828C67.9018 56.3303 67.6522 56.5645 67.4057 56.7856C67.1918 56.9863 67.0492 57.1202 66.9779 57.1871C66.874 57.2743 66.6447 57.5411 66.2899 57.9876C65.9677 58.4138 65.6424 58.8532 65.3141 59.3058C64.9919 59.732 64.8123 60.0243 64.7753 60.1828C64.7384 60.3413 64.7116 60.5161 64.6949 60.7072C64.7046 60.9044 64.8089 61.054 65.0079 61.1562C65.2069 61.2583 65.5618 61.2296 66.0724 61.0702ZM80.6712 67.1481C79.7396 66.4852 79.2015 65.747 79.057 64.9335C78.945 64.0997 79.1663 62.9119 79.7208 61.3701C79.9646 60.5635 80.1172 60.0282 80.1788 59.764C80.2404 59.4998 80.1567 59.2018 79.9278 58.8699C79.8732 58.7458 79.7618 58.5666 79.5936 58.3324C79.4518 58.1044 79.4095 57.9274 79.4667 57.8015C79.4834 57.6104 79.5428 57.4154 79.6449 57.2164C79.7532 56.991 79.8601 56.8906 79.9658 56.9152C80.0715 56.9399 80.1833 56.9381 80.3013 56.9099C80.4456 56.8879 80.5645 56.9156 80.6579 56.9931C80.7635 57.0177 80.8793 57.0586 81.0052 57.1158C81.1311 57.1731 81.1818 57.2545 81.1571 57.3602C81.2197 57.5697 81.3852 57.6361 81.6538 57.5595C81.9285 57.4565 82.2595 57.1716 82.6468 56.7049C83.0095 56.3438 83.4515 56.0012 83.9727 55.6772C84.5203 55.3592 85.0454 55.0778 85.5482 54.833C86.0835 54.5679 86.5149 54.39 86.8424 54.2992C86.9868 54.2772 87.2003 54.2574 87.4829 54.2397C87.7656 54.2221 88.0583 54.2207 88.3612 54.2356C88.6905 54.2567 88.9577 54.3051 89.1629 54.3808C89.6322 54.5181 89.9977 54.7425 90.2592 55.0542C90.5472 55.372 90.7995 55.7233 91.0161 56.108C91.3041 56.4258 91.4415 56.7921 91.4283 57.2068C91.4416 57.6277 91.3695 58.0565 91.2119 58.4932C91.0544 58.9299 90.84 59.3117 90.5689 59.6384C90.4281 59.884 90.1296 60.1487 89.6736 60.4322C89.2175 60.7158 88.7117 60.9739 88.1562 61.2064C87.6006 61.4389 87.1063 61.5882 86.6731 61.6543C86.3112 61.6535 85.8467 61.6148 85.2797 61.5383C84.7391 61.4679 84.231 61.3773 83.7556 61.2665C83.3127 61.1353 83.0212 61.0117 82.8812 60.8955C82.7209 60.7467 82.5418 60.8581 82.3437 61.2297C82.1457 61.6013 81.934 62.1507 81.7087 62.878C81.5203 63.4468 81.4218 63.8695 81.413 64.146C81.4043 64.4224 81.414 64.6197 81.4422 64.7376C81.584 64.9657 81.7795 65.2619 82.0287 65.6264C82.3105 65.9706 82.7767 66.1211 83.4274 66.0779C83.9601 66.0628 84.5288 65.8334 85.1337 65.3895C85.7649 64.9519 86.3319 64.6106 86.8346 64.3657C86.9834 64.2055 87.1797 64.1398 87.4236 64.1689C87.7001 64.1776 87.9744 64.2555 88.2465 64.4025C88.4939 64.6552 88.5604 64.9074 88.446 65.1593C88.3641 65.3908 88.1458 65.7299 87.7911 66.1763C87.6687 66.3427 87.4284 66.5374 87.07 66.7602C86.7443 66.9627 86.3758 67.1693 85.9647 67.3797C85.5861 67.57 85.2463 67.7135 84.9452 67.8104C84.0541 68.0483 83.2622 68.1004 82.5692 67.9666C81.8824 67.8065 81.2497 67.5336 80.6712 67.1481ZM84.8845 59.6497C85.4965 59.6532 85.9803 59.6685 86.336 59.6958C86.6917 59.723 87.0558 59.6547 87.4282 59.4909C87.8068 59.3006 88.317 58.9044 88.9588 58.302C89.1322 58.0361 89.2263 57.7517 89.2413 57.4488C89.2826 57.1521 89.2628 56.9386 89.1817 56.8083C89.0056 56.4887 88.7335 56.3417 88.3655 56.3673C88.03 56.3726 87.6924 56.447 87.3525 56.5906C87.1491 56.6267 86.8256 56.7602 86.3818 56.9909C85.9707 57.2014 85.5472 57.4647 85.1114 57.7809C84.6818 58.0706 84.3244 58.3494 84.0391 58.6171C83.7539 58.8848 83.6579 59.0574 83.7513 59.1348C83.6738 59.2282 83.8037 59.3281 84.1409 59.4346C84.5046 59.5472 84.7525 59.6189 84.8845 59.6497ZM92.0123 69.2495C91.9577 69.1254 91.9093 68.9748 91.867 68.7978C91.8511 68.627 91.8555 68.4888 91.8801 68.3831C91.8925 68.3303 91.8946 68.2612 91.8867 68.1758C91.9052 68.0965 91.8616 68.0446 91.7559 68.0199C91.6952 67.9222 91.8188 67.6308 92.1269 67.1456C92.4676 66.6401 92.8796 66.0678 93.3629 65.4285C93.8726 64.7953 94.3761 64.1886 94.8735 63.6083C95.4035 63.0077 95.8335 62.5371 96.1636 62.1963C96.3142 62.1478 96.4181 62.0606 96.4753 61.9347C96.5651 61.7885 96.5836 61.7093 96.5307 61.697C96.5307 61.697 96.6245 61.5935 96.812 61.3866C97.0321 61.1594 97.191 61.0154 97.2887 60.9546C97.5863 60.6341 97.831 60.3012 98.0229 59.9561C98.2209 59.5845 98.3244 59.2604 98.3331 58.984C98.2583 58.8272 98.1486 58.7599 98.0042 58.7819C97.8598 58.804 97.7876 58.815 97.7876 58.815C97.6758 58.8168 97.505 58.8326 97.2752 58.8626C97.078 58.8723 96.8878 58.9115 96.7047 58.9802C95.9986 59.2612 95.5429 59.3639 95.3378 59.2882C95.1388 59.1861 94.9811 58.7872 94.8648 58.0917C94.8269 57.7765 94.8365 57.5559 94.8937 57.43C94.951 57.3041 95.0905 57.1834 95.3124 57.068C95.5668 56.9324 95.7926 56.8597 95.9899 56.85C96.1932 56.8139 96.357 56.7685 96.4811 56.7139C96.8148 56.5968 97.0834 56.5201 97.2868 56.484C97.5166 56.454 97.6874 56.4382 97.7992 56.4364C98.5353 56.3852 99.1256 56.4811 99.5703 56.724C100.015 56.967 100.292 57.3935 100.4 58.0037C100.665 58.539 100.73 59.0972 100.594 59.6783C100.465 60.2331 100.129 60.8371 99.5868 61.4905L99.052 61.9925C98.8584 62.2258 98.8011 62.3517 98.8804 62.3702C98.986 62.3948 99.1265 62.3301 99.3017 62.176C99.4056 62.0888 99.601 61.9673 99.888 61.8114C100.175 61.6555 100.358 61.5868 100.437 61.6053C100.437 61.6053 100.467 61.5982 100.526 61.5841C100.611 61.5762 100.676 61.4798 100.719 61.2949C100.816 61.2341 100.914 61.1733 101.012 61.1126C101.136 61.058 101.198 61.0307 101.198 61.0307C101.304 61.0553 101.53 60.9826 101.876 60.8126C102.254 60.6224 102.695 60.4049 103.197 60.16C103.537 60.0165 103.826 59.9724 104.064 60.0278C104.715 59.9846 105.157 60.2967 105.391 60.964C105.652 61.6375 105.675 62.4366 105.459 63.3611L104.128 65.3067L105.961 63.8959C106.169 63.7216 106.37 63.5736 106.566 63.4521C106.788 63.3367 106.977 63.2416 107.134 63.1667C107.23 62.9941 107.333 62.907 107.445 62.9052C107.557 62.9034 107.613 62.9025 107.613 62.9025C107.613 62.9025 107.639 62.9087 107.692 62.921C107.751 62.9069 107.79 62.8602 107.808 62.781C107.965 62.7061 108.132 62.6475 108.309 62.6053C108.492 62.5365 108.622 62.4555 108.7 62.3622C109.192 62.282 109.608 62.351 109.947 62.5694C110.292 62.7612 110.532 63.1654 110.667 63.7817C110.778 64.1418 110.819 64.4438 110.79 64.6877C110.761 64.9316 110.691 65.2912 110.58 65.7667C110.435 66.1506 110.308 66.4553 110.2 66.6807C110.124 66.8859 110.045 67.1042 109.963 67.3358C109.881 67.5674 109.765 67.8884 109.613 68.2987C109.458 68.4854 109.34 68.6945 109.258 68.9261C109.203 69.1638 109.15 69.3883 109.101 69.5997C109.021 69.9431 108.979 70.1839 108.974 70.3221C108.976 70.4339 109.07 70.5114 109.254 70.5545C109.643 70.5615 110.188 70.4936 110.89 70.3509C111.624 70.1879 112.183 69.9981 112.568 69.7814C113.051 69.504 113.437 69.3992 113.728 69.4669C114.051 69.5144 114.215 69.7059 114.22 70.0414C114.249 70.1593 114.101 70.3755 113.777 70.6899C113.479 71.0104 113.145 71.3085 112.774 71.5842C112.43 71.866 112.192 71.9915 112.06 71.9607C111.981 71.9422 111.87 71.9999 111.727 72.1337C111.591 72.2412 111.447 72.3191 111.297 72.3676C111.069 72.5094 110.844 72.6379 110.622 72.7533C110.426 72.8748 110.223 72.911 110.012 72.8617C109.906 72.8371 109.765 72.8459 109.588 72.8882C109.443 72.9102 109.279 72.8997 109.094 72.8565C108.811 72.8742 108.411 72.7391 107.893 72.4513C107.402 72.1696 107.145 71.7197 107.122 71.1016C107.084 70.7864 107.099 70.3026 107.168 69.6501C107.242 68.9713 107.41 68.314 107.669 67.6782C107.886 67.2274 108.053 66.8069 108.172 66.4169C108.291 66.0268 108.409 65.7618 108.525 65.6217C108.543 65.5425 108.586 65.3576 108.654 65.067C108.728 64.75 108.725 64.5823 108.646 64.5638C108.54 64.5392 108.243 64.6788 107.755 64.9826C107.299 65.2662 106.739 65.637 106.075 66.0949C105.437 66.559 104.794 67.0495 104.144 67.5665C103.494 68.0834 102.953 68.5559 102.519 68.9838C102.213 69.219 101.919 69.5263 101.635 69.9058C101.352 70.2853 101.164 70.4923 101.073 70.5266C100.838 70.6948 100.608 70.6689 100.381 70.4488C100.18 70.2349 100.014 69.9316 99.8825 69.5389C99.8402 69.3619 99.8182 69.2175 99.8164 69.1057C99.8208 68.9675 99.8608 68.7958 99.9365 68.5906C100.045 68.3652 100.217 68.0434 100.454 67.6251C100.717 67.213 101.076 66.6283 101.532 65.871C102.032 65.0407 102.47 64.2935 102.848 63.6296C103.258 62.9454 103.463 62.6033 103.463 62.6033C103.488 62.4976 103.265 62.5571 102.795 62.7817C102.331 62.9799 101.783 63.2419 101.15 63.5678C100.844 63.8029 100.346 64.1464 99.656 64.5981C98.9657 65.0499 98.2042 65.5686 97.3714 66.1543C96.5385 66.7399 95.7228 67.3713 94.9243 68.0485C93.9058 68.9529 93.2103 69.487 92.8378 69.6509C92.4918 69.8209 92.2167 69.6871 92.0123 69.2495ZM130.672 80.0189C130.347 79.8596 130.042 79.6769 129.756 79.4709C129.469 79.265 129.291 79.0145 129.221 78.7195C129.272 78.62 129.31 78.5175 129.334 78.4118C129.385 78.3123 129.41 78.2066 129.408 78.0948C129.488 77.7514 129.711 77.2742 130.076 76.6631C130.468 76.0581 130.915 75.3964 131.416 74.6778C131.945 73.9654 132.434 73.2997 132.885 72.6807C132.606 72.922 132.143 73.232 131.498 73.6107C130.879 73.9955 130.215 74.3976 129.504 74.8168C128.8 75.2096 128.157 75.5751 127.577 75.9132C127.003 76.225 126.615 76.4549 126.414 76.6028C126.031 76.9313 125.696 77.1735 125.409 77.3294C125.122 77.4853 124.676 77.7851 124.071 78.229C123.86 78.1797 123.662 78.1335 123.477 78.0904C123.292 78.0473 123.12 78.0072 122.962 77.9703C122.747 77.6974 122.568 77.4469 122.427 77.2189C122.311 76.997 122.27 76.695 122.304 76.3129C122.982 75.9139 123.497 75.6162 123.849 75.4198C124.234 75.2032 124.651 74.9663 125.101 74.7091C125.257 74.6342 125.61 74.4379 126.157 74.1199C126.711 73.7756 127.33 73.3907 128.014 72.9653C128.731 72.5197 129.398 72.1045 130.017 71.7196C130.636 71.3348 131.076 71.0613 131.337 70.8993C131.074 70.1139 130.898 69.5575 130.807 69.23C130.722 68.876 130.609 68.4041 130.468 67.8142C130.378 67.4867 130.303 67.149 130.245 66.8012C130.193 66.427 130.138 66.066 130.08 65.7183C130.064 65.5475 130.064 65.3665 130.081 65.1755C130.124 64.9905 130.122 64.8228 130.073 64.6723C130.041 64.3306 130.07 64.0308 130.158 63.7728C130.272 63.521 130.421 63.3607 130.604 63.292C130.75 63.3818 130.903 63.5011 131.064 63.6499C131.23 63.7722 131.403 63.8682 131.581 63.9377C131.76 64.0073 131.88 64.0909 131.941 64.1886C132.028 64.2925 132.115 64.3964 132.202 64.5003C132.322 64.5839 132.383 64.6816 132.384 64.7934C132.413 64.9114 132.428 65.0263 132.429 65.1381C132.464 65.2297 132.511 65.3243 132.572 65.4221C132.436 65.5295 132.392 65.6585 132.44 65.8091C132.495 65.9332 132.52 66.0644 132.515 66.2026C132.612 67.3393 132.72 68.3113 132.838 69.1187C132.962 69.8997 133.031 70.3197 133.046 70.3787C133.1 70.5028 133.158 70.6137 133.219 70.7114C133.306 70.8153 133.413 70.9518 133.541 71.1208C133.906 70.5097 134.327 69.8418 134.802 69.1171C135.277 68.3924 135.711 67.7276 136.103 67.1226C136.527 66.4974 136.823 66.0651 136.99 65.8256C137.035 65.7525 137.08 65.6794 137.125 65.6063C137.202 65.513 137.253 65.4135 137.278 65.3078C137.313 65.0375 137.406 64.8781 137.556 64.8297C137.739 64.761 137.933 64.7085 138.136 64.6724C138.752 64.8995 139.216 65.356 139.53 66.0418C139.568 66.357 139.572 66.6366 139.543 66.8805C139.514 67.1244 139.396 67.3894 139.19 67.6756C138.874 68.0754 138.527 68.5513 138.147 69.1034C137.8 69.6353 137.367 70.3001 136.847 71.0979C136.326 71.8957 135.661 72.8964 134.852 74.1002C134.447 74.758 134.107 75.2634 133.829 75.6165C133.585 75.9494 133.362 76.2457 133.163 76.5054C132.989 76.7714 132.79 77.0871 132.566 77.4525C132.374 77.7977 132.116 78.3084 131.791 78.9846C131.867 79.2532 131.845 79.4706 131.722 79.6371C131.606 79.7771 131.466 79.8977 131.304 79.999C131.122 80.1795 130.912 80.1862 130.672 80.0189ZM135.661 79.0514C135.506 78.8762 135.424 78.69 135.415 78.4928C135.411 78.2692 135.388 78.0689 135.346 77.8919C135.213 77.3874 135.142 76.8556 135.133 76.2965C135.124 75.7374 135.024 75.2126 134.832 74.7222L132.839 74.1322L134.489 72.4282L135.937 72.8493C136.33 72.7181 136.669 72.5745 136.956 72.4186C137.276 72.2425 137.599 72.0531 137.925 71.8505C139.181 71.0016 140.154 70.3512 140.844 69.8994C141.535 69.4476 142.046 69.1073 142.378 68.8783C142.709 68.6493 142.976 68.4609 143.178 68.3129C143.457 68.0716 143.647 67.8515 143.75 67.6525C143.884 67.4332 143.993 67.2637 144.077 67.1439C144.215 67.1483 144.35 67.1659 144.483 67.1967C144.615 67.2275 144.733 67.2552 144.839 67.2799C145.05 67.3291 145.209 67.3661 145.315 67.3907C145.42 67.4154 145.55 67.5153 145.704 67.6905C146.073 68.1386 146.119 68.5392 145.842 68.8923C145.481 69.3652 145.076 69.7861 144.628 70.1551C144.186 70.4977 143.61 70.8786 142.9 71.2978C142.222 71.6967 141.332 72.2273 140.231 72.8896C140.106 72.9442 139.809 73.0838 139.339 73.3084C138.869 73.533 138.415 73.7475 137.978 73.9518C137.573 74.1359 137.37 74.2279 137.37 74.2279C137.331 74.2746 137.243 74.2957 137.105 74.2914C136.999 74.2667 136.9 74.2716 136.809 74.3059C136.993 74.7109 137.177 75.3528 137.363 76.2315C137.58 77.0899 137.765 77.9686 137.918 78.8675C137.982 79.1889 138.073 79.5164 138.19 79.8501C138.34 80.1635 138.474 80.543 138.593 80.9885C138.517 81.1937 138.415 81.3927 138.286 81.5855C138.178 81.8109 138.065 81.9377 137.947 81.9659C137.646 82.0628 137.284 82.062 136.861 81.9634C136.465 81.871 136.131 81.7513 135.859 81.6043C135.846 81.1835 135.819 80.7595 135.78 80.3325C135.74 79.9055 135.7 79.4785 135.661 79.0514ZM151.784 84.6492C151.581 84.3235 151.4 83.9053 151.241 83.3946C151.087 82.8575 151.002 82.2668 150.985 81.6222C150.982 81.3986 151.023 81.1019 151.109 80.7321C151.222 80.3684 151.284 80.1043 151.294 79.9396C151.172 80.106 150.994 80.2733 150.759 80.4416C150.558 80.5895 150.362 80.711 150.173 80.8062C150.043 80.8872 149.756 81.0431 149.312 81.2738C148.874 81.4781 148.449 81.6297 148.036 81.7283C147.035 82.0798 146.238 82.2142 145.644 82.1315C145.077 82.055 144.617 81.6412 144.263 80.8902C143.92 80.4483 143.706 79.9944 143.619 79.5286C143.559 79.069 143.695 78.4879 144.026 77.7852C144.294 76.873 144.636 76.0057 145.05 75.1833C145.471 74.3344 146.184 73.2474 147.19 71.9221C147.997 70.9684 148.604 70.2745 149.012 69.8404C149.426 69.3799 149.684 69.106 149.788 69.0188C150.215 68.9791 150.542 69.0693 150.77 69.2894C151.003 69.4831 151.103 69.771 151.07 70.1531C151.166 70.4542 151.035 70.8971 150.676 71.4818C150.343 72.0727 149.832 72.7749 149.14 73.5886C148.561 74.4005 148.008 75.2185 147.482 76.0427C146.982 76.8731 146.632 77.5991 146.431 78.2207C146.23 78.8424 146.3 79.2624 146.639 79.4807C146.846 79.6682 147.264 79.724 147.895 79.6482C148.551 79.5786 149.348 79.2073 150.285 78.5345C151.248 77.8678 152.286 76.7592 153.4 75.2085C153.735 74.7295 154.001 74.3042 154.199 73.9326C154.403 73.5346 154.577 73.0877 154.72 72.592C154.741 72.2627 154.819 71.9884 154.954 71.7691C155.121 71.5296 155.385 71.3543 155.745 71.2434C155.882 71.1359 156.055 71.0509 156.264 70.9884C156.48 70.8994 156.599 70.9271 156.621 71.0715L157.264 71.1797C157.376 71.178 157.426 71.2594 157.416 71.4241C157.438 71.5684 157.503 71.7089 157.61 71.8453C157.845 72.1508 157.804 72.6844 157.487 73.4461C157.171 74.2077 156.542 75.2309 155.602 76.5157C154.847 77.4817 154.313 78.2205 153.999 78.7321C153.711 79.2498 153.492 79.7698 153.343 80.2919C153.232 80.7674 153.22 81.238 153.306 81.7038C153.392 82.1696 153.593 82.6203 153.91 83.0561C154.157 83.3088 154.266 83.5571 154.237 83.801C154.235 84.051 154.183 84.3315 154.083 84.6423C153.975 84.8677 153.77 85.0289 153.469 85.1257C153.2 85.2024 152.908 85.2038 152.591 85.1298C152.274 85.0559 152.005 84.8957 151.784 84.6492ZM150.315 96.8817C149.734 96.7462 149.203 96.5112 148.724 96.1766C148.219 95.836 147.784 95.3725 147.419 94.7861C147.317 94.1495 147.235 93.7265 147.172 93.5169C147.077 93.3277 146.895 93.0345 146.625 92.6374C146.656 92.5053 146.767 92.2667 146.959 91.9215C147.145 91.6028 147.374 91.336 147.647 91.1211C148.356 90.5901 149.168 90.1528 150.084 89.8093C150.993 89.4922 152.02 89.2719 153.162 89.1485C153.307 89.1264 153.454 89.0912 153.605 89.0427C153.776 89.0269 153.927 89.0343 154.059 89.0651C154.191 89.0959 154.289 89.0352 154.352 88.8828C154.442 88.7367 154.564 88.7512 154.718 88.9264C154.863 88.9043 154.984 88.8629 155.081 88.8022C155.179 88.7414 155.314 88.759 155.487 88.8549C155.487 88.8549 155.641 88.8492 155.95 88.8377C156.286 88.8324 156.667 88.8099 157.094 88.7702C157.515 88.7569 157.883 88.7313 158.198 88.6934C158.534 88.6881 158.701 88.6854 158.701 88.6854C158.921 87.9845 159.106 87.248 159.258 86.4758C159.437 85.7097 159.358 85.0925 159.022 84.6242C158.825 84.272 158.691 83.8925 158.619 83.4858C158.573 83.0851 158.494 82.6489 158.381 82.177C158.489 81.9515 158.628 81.775 158.797 81.6473C158.966 81.5196 159.182 81.4306 159.444 81.3804C160.001 81.2597 160.695 81.0316 161.525 80.696C162.388 80.3401 163.286 79.8949 164.218 79.3603C165.15 78.8258 166.003 78.2168 166.775 77.5334C167.268 77.0914 167.517 76.6203 167.522 76.1202C167.554 75.6262 167.159 75.2278 166.338 74.9251C165.81 74.8019 165.173 74.8482 164.426 75.064C163.686 75.2534 162.888 75.5688 162.033 76.01C161.573 76.0699 161.279 75.9595 161.149 75.6786C161.026 75.3714 160.949 75.0469 160.917 74.7053C161.037 74.427 161.202 74.2007 161.409 74.0264C161.623 73.8256 161.847 73.6411 162.082 73.4729C162.342 73.3109 162.579 73.1294 162.793 72.9287C163.029 72.8723 163.239 72.8097 163.422 72.741C163.611 72.6459 163.811 72.5671 164.02 72.5045C164.203 72.4358 164.38 72.3935 164.551 72.3777C164.755 72.3415 164.949 72.345 165.134 72.3881C165.292 72.4251 165.457 72.4356 165.628 72.4198C165.804 72.3775 165.985 72.3779 166.17 72.421C167.4 72.7633 168.266 73.4667 168.77 74.5311C169.274 75.5956 169.384 76.5544 169.102 77.4076C168.846 78.267 168.132 79.2982 166.96 80.5011C166.63 80.8418 166.135 81.1721 165.476 81.4918C164.843 81.8177 164.173 82.1211 163.467 82.4021C162.787 82.6892 162.186 82.9389 161.663 83.1512C161.146 83.337 160.839 83.4603 160.741 83.5211C160.911 83.8671 161.048 84.4143 161.152 85.1627C161.262 85.8847 161.317 86.6075 161.315 87.3313C161.333 88.0876 161.231 88.6485 161.006 89.0139C161.258 89.1284 161.594 89.1789 162.015 89.1657C162.456 89.185 162.796 89.2224 163.033 89.2778C163.216 89.571 163.401 89.8509 163.59 90.1177C163.778 90.3844 163.845 90.6367 163.789 90.8744C163.805 91.0452 163.731 91.1813 163.569 91.2826C163.432 91.39 163.295 91.4415 163.157 91.4371C162.801 91.4099 162.362 91.3215 161.84 91.1719C161.318 91.0223 160.781 90.9946 160.23 91.0889C159.731 91.5574 159.272 92.091 158.854 92.6898C158.43 93.315 157.923 93.9349 157.334 94.5496C156.739 95.1907 155.903 95.7895 154.826 96.3461C154.448 96.5364 154.062 96.6971 153.669 96.8284C153.27 96.986 152.965 97.0402 152.754 96.9909C152.301 97.0245 151.867 97.0347 151.452 97.0215C151.064 97.0145 150.685 96.9679 150.315 96.8817ZM149.082 94.4636C149.07 94.5165 149.265 94.5759 149.667 94.6418C150.037 94.7281 150.501 94.7667 151.061 94.7579C151.64 94.7815 152.169 94.7238 152.647 94.5846C153.249 94.3908 153.787 94.1125 154.262 93.7497C154.73 93.4133 155.195 93.0342 155.655 92.6123C155.836 92.4318 156.024 92.2249 156.218 91.9915C156.405 91.7846 156.569 91.5583 156.71 91.3126C156.574 91.0582 156.268 91.0005 155.79 91.1397C155.311 91.2789 154.757 91.3864 154.127 91.4622C153.47 91.5319 152.656 91.6764 151.686 91.8958C150.736 92.1477 149.975 92.4855 149.403 92.9091C149.228 93.0632 149.042 93.201 148.847 93.3226C148.651 93.4441 148.446 93.5493 148.23 93.6383C148.319 93.854 148.431 94.0332 148.564 94.1758C148.698 94.3184 148.871 94.4143 149.082 94.4636ZM177.564 90.2848C177.418 90.195 177.269 90.1184 177.117 90.0551C176.97 89.9653 176.824 89.8755 176.678 89.7857C176.558 89.7021 176.409 89.6255 176.23 89.556C176.052 89.1246 176.051 88.6509 176.227 88.1349C176.41 87.5925 176.661 87.0523 176.981 86.5142C177.328 85.9824 177.659 85.4606 177.973 84.949C178.314 84.4436 178.543 83.9958 178.662 83.6058C178.66 83.494 178.627 83.4583 178.562 83.4988C178.503 83.5129 178.467 83.5464 178.455 83.5992C178.221 83.7674 177.923 83.8511 177.561 83.8503C177.199 83.8494 176.866 83.8416 176.564 83.8266C176.043 83.7889 175.52 83.7643 174.993 83.7529C174.467 83.7415 173.95 83.7465 173.444 83.7677C173.377 83.6963 173.3 83.6088 173.213 83.5049C173.152 83.4071 173.088 83.3226 173.021 83.2513C172.836 83.2082 172.638 83.3429 172.426 83.6555C172.214 83.9681 171.996 84.3631 171.773 84.8403C171.557 85.2912 171.343 85.7288 171.133 86.1532C170.955 86.5574 170.805 86.8427 170.683 87.0091C170.248 86.9634 169.941 86.9057 169.762 86.8362C169.61 86.7728 169.325 86.6228 168.906 86.386C168.763 86.0461 168.709 85.7411 168.744 85.4707C168.805 85.2066 168.913 84.9253 169.066 84.6268C169.34 84.05 169.559 83.586 169.725 83.2346C169.917 82.8894 170.199 82.454 170.573 81.9283C170.772 81.6685 170.956 81.4189 171.123 81.1794C171.323 80.9196 171.463 80.618 171.543 80.2746C171.816 80.0598 172.029 79.8031 172.182 79.5046C172.335 79.2061 172.502 78.9106 172.681 78.6183C173.356 77.6338 173.881 76.8787 174.254 76.353C174.66 75.8071 174.955 75.3747 175.141 75.056C175.327 74.7372 175.467 74.4356 175.561 74.1512C175.674 73.7876 175.941 73.655 176.364 73.7536C176.628 73.8151 176.881 73.9855 177.122 74.2646C177.37 74.5172 177.539 74.8073 177.629 75.1348C177.72 75.4624 177.663 75.7692 177.457 76.0554C177.328 76.2482 177.116 76.5609 176.82 76.9932C176.557 77.4053 176.255 77.8641 175.914 78.3695C175.606 78.8547 175.304 79.3135 175.008 79.7458C174.745 80.1579 174.536 80.4573 174.381 80.644C174.33 80.7435 174.256 80.8237 174.158 80.8844C174.067 80.9188 174.005 81.002 173.975 81.1341C174.129 81.3093 174.42 81.4329 174.849 81.5051C175.31 81.5569 175.646 81.5516 175.855 81.4891C176.252 81.5815 176.635 81.6708 177.004 81.757C177.401 81.8494 177.797 81.9418 178.193 82.0342C178.534 82.3643 178.754 82.7918 178.855 83.3165C179.157 82.8577 179.562 82.2559 180.07 81.5109C180.584 80.7395 181.082 79.9783 181.563 79.2272C182.045 78.4761 182.361 77.8953 182.512 77.485C182.621 77.2596 182.776 77.0729 182.977 76.925C183.179 76.777 183.384 76.6718 183.594 76.6092C183.921 76.8804 184.24 77.122 184.553 77.3342C184.898 77.5261 185.065 77.8853 185.054 78.4118C184.972 78.6434 184.864 78.8688 184.729 79.088C184.6 79.2809 184.472 79.4737 184.343 79.6666C183.901 80.371 183.373 81.1393 182.761 81.9715C182.156 82.7772 181.57 83.6155 181.005 84.4864C180.473 85.337 180.045 86.1563 179.722 86.9444C179.703 87.0236 179.576 87.2724 179.339 87.6907C179.129 88.1151 178.908 88.5232 178.677 88.9151C178.473 89.3131 178.355 89.5222 178.322 89.5425C178.279 89.7274 178.186 89.8867 178.044 90.0206C177.907 90.128 177.747 90.2161 177.564 90.2848ZM187.016 92.2798C186.638 92.1082 186.277 91.9823 185.934 91.9022C185.617 91.8283 185.322 91.7179 185.05 91.5709C184.811 91.4036 184.616 91.1633 184.466 90.8498C184.237 90.5179 184.1 90.1517 184.054 89.7511C184.015 89.324 184.05 88.8728 184.161 88.3973C184.364 87.5256 184.737 86.5821 185.281 85.5668C185.856 84.5313 186.482 83.5213 187.157 82.5368C187.832 81.5524 188.472 80.6573 189.078 79.8515C189.684 79.0458 190.138 78.4136 190.44 77.9548C190.454 77.6519 190.584 77.515 190.828 77.544C191.098 77.5792 191.382 77.6734 191.681 77.8265C191.986 77.9533 192.185 78.0554 192.278 78.1328C192.393 78.3547 192.506 78.5898 192.615 78.838C192.73 79.0599 192.773 79.2928 192.744 79.5367C192.736 79.8132 192.608 80.0619 192.361 80.2829C192.141 80.5101 191.931 80.6977 191.729 80.8457C191.397 81.0746 191.018 81.4458 190.592 81.9592C190.166 82.4726 189.718 83.0784 189.249 83.7767C188.812 84.4547 188.399 85.1521 188.009 85.8689C187.619 86.5857 187.281 87.2588 186.995 87.8884C186.742 88.4977 186.582 89.0036 186.516 89.406C187.2 89.8162 187.924 90.0547 188.689 90.1215C189.453 90.1883 190.169 90.1046 190.836 89.8703C191.536 89.6157 192.103 89.2744 192.537 88.8465C193.042 88.3516 193.284 87.851 193.263 87.3447C193.275 86.8182 192.903 86.4392 192.15 86.2077C191.76 86.0889 191.387 86.0159 191.031 85.9886C190.675 85.9614 190.306 85.9311 189.924 85.8977C189.789 85.6432 189.7 85.4275 189.657 85.2506C189.615 85.0736 189.599 84.9028 189.61 84.7381C189.663 84.3886 189.86 84.142 190.2 83.9984C190.572 83.8346 190.969 83.7461 191.39 83.7328C191.837 83.7257 192.213 83.7855 192.518 83.9123C193.028 84.1147 193.516 84.4096 193.983 84.7969C194.476 85.1904 194.851 85.6121 195.108 86.062C195.27 86.3226 195.383 86.6136 195.448 86.935C195.545 87.2361 195.572 87.535 195.531 87.8317C195.483 88.5167 195.331 89.108 195.076 89.6055C194.826 90.0766 194.494 90.4865 194.079 90.8352C193.417 91.405 192.518 91.7943 191.383 92.0031C190.275 92.2181 189.242 92.4089 188.284 92.5755C188.019 92.5139 187.811 92.4514 187.659 92.388C187.539 92.3044 187.325 92.2683 187.016 92.2798ZM202.622 106.656C202.016 106.626 201.617 106.547 201.424 106.418C201.231 106.29 200.972 106.09 200.645 105.819C200.404 105.54 200.216 105.329 200.082 105.186C199.948 105.044 199.894 104.919 199.918 104.814C199.937 104.734 199.985 104.648 200.062 104.555C200.134 104.488 200.245 104.43 200.395 104.382C200.566 104.366 200.783 104.389 201.048 104.45C201.208 104.599 201.499 104.723 201.922 104.821C202.371 104.926 202.661 104.938 202.791 104.857C202.791 104.857 202.928 104.805 203.203 104.702C203.498 104.632 203.866 104.606 204.307 104.626C205.218 104.42 206.062 104.088 206.837 103.628C207.613 103.168 208.405 102.518 209.214 101.676C209.538 101.361 209.891 100.984 210.272 100.544C210.647 100.13 210.943 99.6974 211.16 99.2466C211.494 98.7675 211.898 98.1098 212.372 97.2732C212.872 96.4429 213.329 95.6165 213.744 94.7941C214.164 93.9452 214.44 93.2993 214.571 92.8564C215.075 91.4142 215.643 90.1123 216.276 88.9508C216.941 87.7691 217.588 86.4298 218.215 84.9329C218.46 84.6001 218.628 84.4165 218.72 84.3821C218.818 84.3214 218.998 84.3218 219.263 84.3834C219.553 84.4511 219.758 84.5268 219.878 84.6104C220.03 84.6738 220.165 84.8723 220.282 85.206C220.429 85.7695 220.383 86.3854 220.144 87.0537C219.937 87.7018 219.604 88.2367 219.143 88.6585C218.793 88.9668 218.419 89.4925 218.023 90.2356C217.66 90.9586 217.25 91.8796 216.794 92.9988C216.527 93.5491 216.221 94.202 215.878 94.9575C215.567 95.6928 215.222 96.5174 214.841 97.4314C214.674 97.6709 214.433 98.0464 214.119 98.5581C213.811 99.0432 213.594 99.4382 213.467 99.7428C213.416 99.8423 213.287 100.035 213.081 100.321C212.875 100.608 212.672 100.881 212.473 101.14C212.267 101.426 212.125 101.616 212.047 101.71C210.518 103.609 208.961 104.973 207.375 105.801C205.79 106.628 204.205 106.913 202.622 106.656ZM208.313 95.8673C208.022 95.7995 207.756 95.5702 207.512 95.1793C207.296 94.7946 207.156 94.4974 207.094 94.2879C207.05 93.9991 206.976 93.7173 206.873 93.4426C206.77 93.1679 206.719 92.8497 206.72 92.4878C206.747 92.1321 206.872 91.7156 207.095 91.2383C207.28 90.9196 207.54 90.4648 207.872 89.8739C208.238 89.2628 208.628 88.602 209.045 87.8913C209.488 87.1869 209.927 86.4957 210.364 85.8176C210.833 85.1193 211.254 84.5074 211.628 83.9817C212.007 83.4295 212.32 83.043 212.566 82.8219C212.774 82.6476 212.977 82.5555 213.174 82.5458C213.398 82.5423 213.603 82.6179 213.789 82.7729C213.982 82.9014 214.127 83.1162 214.224 83.4173C214.428 83.8549 214.473 84.1996 214.359 84.4514C214.244 84.7033 213.887 85.1629 213.285 85.8304C213.112 86.0963 212.906 86.3825 212.667 86.689C212.435 86.969 212.306 87.1618 212.282 87.2675C212.243 87.3142 212.147 87.4868 211.994 87.7853C211.873 88.0635 211.743 88.3255 211.602 88.5711C211.461 88.8168 211.351 88.9304 211.272 88.9119C211.141 88.993 210.952 89.269 210.703 89.7401C210.46 90.1848 210.214 90.6986 209.967 91.2815C209.726 91.838 209.54 92.3377 209.409 92.7806C209.284 93.1971 209.274 93.4176 209.38 93.4423C210.199 93.6332 211.118 93.5133 212.137 93.0826C213.183 92.6581 214.297 91.943 215.478 90.9373L215.496 93.9076C215.083 94.0063 214.693 94.1243 214.327 94.2617C213.967 94.3727 213.624 94.5295 213.298 94.7321C213.195 94.8192 212.976 94.9214 212.642 95.0386C212.308 95.1557 211.978 95.2596 211.65 95.3504C211.355 95.4209 211.168 95.4469 211.089 95.4284C211.089 95.4284 211.046 95.4324 210.961 95.4403C210.908 95.428 210.869 95.4746 210.845 95.5803C210.832 95.6331 210.636 95.6988 210.256 95.7772C209.881 95.8292 209.497 95.8649 209.103 95.8843C208.708 95.9038 208.445 95.8981 208.313 95.8673ZM222.886 101.062C222.801 101.07 222.625 100.987 222.359 100.814C222.099 100.614 221.819 100.381 221.519 100.116C221.251 99.8312 221.046 99.5745 220.905 99.3465C220.755 99.0331 220.618 98.7227 220.495 98.4155C220.404 98.088 220.402 97.7393 220.488 97.3695C220.396 96.9301 220.386 96.4961 220.458 96.0672C220.562 95.6182 220.651 95.1793 220.723 94.7505C220.851 94.0839 221.153 93.4442 221.63 92.8313C222.113 92.192 222.488 91.7222 222.752 91.422C222.971 91.0829 223.346 90.6691 223.878 90.1803C224.442 89.6713 225.096 89.1971 225.839 88.7576C226.582 88.3182 227.32 88.0169 228.055 87.8539C228.527 87.7412 228.989 87.668 229.443 87.6345C229.929 87.5807 230.438 87.7272 230.97 88.0741C231.242 88.2211 231.428 88.376 231.53 88.5389C231.631 88.7018 231.745 88.8677 231.873 89.0367C232.121 88.9275 232.382 88.5845 232.656 88.0078C232.962 87.4108 233.221 86.7191 233.432 85.9328C233.676 85.1263 233.818 84.3378 233.859 83.5674C233.932 82.7767 233.849 82.1168 233.61 81.5876C233.179 80.5681 232.612 79.837 231.907 79.3942C231.203 78.9514 230.313 78.8274 229.237 79.0221C228.951 78.8161 228.719 78.4974 228.541 78.066C228.389 77.6408 228.409 77.2556 228.601 76.9104C228.856 76.7748 229.163 76.6514 229.523 76.5404C229.883 76.4295 230.228 76.3845 230.557 76.4056C230.945 76.4126 231.328 76.446 231.703 76.5058C232.106 76.5718 232.491 76.7729 232.858 77.1092C234.127 77.8786 235.009 78.7527 235.505 79.7318C236.033 80.6905 236.297 81.7686 236.297 82.9661C236.296 84.1635 236.149 85.508 235.857 86.9996C235.812 87.4346 235.736 87.8207 235.629 88.1579C235.555 88.4749 235.389 89.0072 235.131 89.7547C234.787 90.0365 234.586 90.4213 234.528 90.9091C234.502 91.3767 234.351 91.787 234.074 92.1401C233.943 92.583 233.751 92.9282 233.498 93.1756C233.245 93.4231 233.088 93.6789 233.027 93.943C232.243 95.1529 231.294 96.2964 230.18 97.3734C229.092 98.4565 227.925 99.3402 226.679 100.025C225.433 100.709 224.169 101.055 222.886 101.062ZM223.249 98.4309C223.488 98.5982 223.909 98.5849 224.511 98.3911C225.12 98.1709 225.766 97.8481 226.45 97.4228C227.14 96.971 227.732 96.524 228.225 96.082C228.4 95.9279 228.643 95.6641 228.952 95.2908C229.289 94.9236 229.596 94.5634 229.873 94.2103C230.177 93.8633 230.354 93.6401 230.405 93.5406C230.797 92.9357 231.074 92.3457 231.236 91.7707C231.43 91.1755 231.456 90.7639 231.315 90.5358C231.104 90.1247 230.647 89.9346 229.944 89.9655C229.267 90.0026 228.588 90.1647 227.908 90.4518C227.412 90.6702 226.93 91.0036 226.464 91.4518C226.03 91.8798 225.592 92.265 225.15 92.6076C225.133 92.7987 225.043 92.9448 224.88 93.0461C224.744 93.1536 224.594 93.2579 224.431 93.3592C223.934 93.9395 223.565 94.5079 223.324 95.0644C223.089 95.5945 222.956 95.9256 222.925 96.0576C222.826 96.4803 222.791 96.9315 222.818 97.4114C222.845 97.8913 222.989 98.2311 223.249 98.4309ZM237.013 104.356C236.663 104.302 236.392 104.211 236.199 104.083C236.013 103.928 235.782 103.721 235.509 103.462C235.032 102.878 234.701 102.327 234.515 101.81C234.362 101.273 234.351 100.783 234.482 100.34C234.59 100.115 234.64 99.9033 234.63 99.7061C234.647 99.5151 234.655 99.4195 234.655 99.4195C234.527 99.2505 234.493 99.1589 234.552 99.1448C234.617 99.1043 234.675 99.0343 234.726 98.9348C234.95 98.9313 235.01 98.7921 234.907 98.5174C234.877 98.2876 235.028 97.8214 235.358 97.1187C235.722 96.3958 236.126 95.738 236.571 95.1454C236.77 94.8856 237.045 94.5457 237.393 94.1257C237.768 93.7118 238.17 93.3041 238.598 92.9025C239.032 92.4746 239.415 92.1461 239.746 91.9171C240.482 91.3922 241.111 91.0237 241.634 90.8114C242.189 90.5789 242.782 90.4247 243.413 90.3489C243.99 90.2608 244.401 90.2312 244.645 90.2602C244.889 90.2892 245.182 90.5247 245.524 90.9667C246.115 91.2994 246.529 91.6744 246.766 92.0918C247.036 92.4888 247.183 93.0523 247.207 93.7822C247.24 94.5975 247.094 95.5243 246.768 96.5624C246.475 97.5803 245.715 98.8095 244.488 100.25C243.746 101.163 243.062 101.826 242.437 102.237C241.838 102.654 241.128 103.073 240.305 103.494C239.705 103.8 239.166 104.022 238.688 104.162C238.21 104.301 237.651 104.366 237.013 104.356ZM241.282 100.38C241.995 99.7108 242.574 99.0798 243.019 98.4872C243.496 97.8743 243.947 97.0743 244.372 96.0873C244.493 95.809 244.589 95.4555 244.661 95.0267C244.74 94.5715 244.769 94.1466 244.75 93.7522C244.757 93.3639 244.684 93.1381 244.532 93.0747C244.219 92.8625 243.836 92.7732 243.383 92.8067C242.935 92.8139 242.399 93.023 241.774 93.4343C241.202 93.8579 240.654 94.3568 240.13 94.9309C239.633 95.5112 239.146 96.1637 238.671 96.8884C238.195 97.6131 237.721 98.3938 237.247 99.2303C236.749 100.172 236.584 100.942 236.751 101.538C236.945 102.14 237.429 102.392 238.204 102.294C238.985 102.17 240.011 101.532 241.282 100.38ZM248.903 99.1491C248.378 100.085 247.965 101.019 247.665 101.952C247.39 102.89 247.285 103.757 247.351 104.552C247.448 105.327 247.768 105.987 248.31 106.531C248.557 106.783 248.824 107.013 249.11 107.219C249.402 107.398 249.723 107.515 250.073 107.568C250.386 107.781 250.777 107.774 251.247 107.55C251.75 107.305 252.352 106.874 253.052 106.258C253.786 105.621 254.602 104.809 255.501 103.821C255.731 103.429 255.959 103.05 256.183 102.685C256.44 102.299 256.684 101.91 256.915 101.519C257.243 101.066 257.484 100.69 257.637 100.392C257.79 100.093 257.928 99.68 258.052 99.1517C258.064 99.0989 258.076 99.046 258.089 98.9932C258.127 98.9465 258.153 98.8968 258.165 98.844C258.298 98.5129 258.445 98.2408 258.606 98.0277C258.8 97.7943 258.874 97.4774 258.828 97.0767C258.95 96.9103 259.031 96.6228 259.071 96.2143C259.143 95.7855 259.172 95.3606 259.159 94.9398C259.178 94.4986 259.17 94.1764 259.134 93.973C259.232 93.5504 259.262 93.1255 259.222 92.6985C259.182 92.2715 259.14 91.8577 259.094 91.457C259.007 91.3532 258.989 91.2515 259.04 91.152C259.091 91.0525 259.102 90.9437 259.074 90.8257C258.941 90.3213 258.731 89.7292 258.444 89.0495C258.163 88.3434 257.966 87.7544 257.853 87.2824C257.983 87.2014 258.131 87.1662 258.295 87.1767C258.487 87.1934 258.678 87.2101 258.869 87.2268C259.066 87.2171 259.237 87.2012 259.381 87.1792C259.676 87.1087 260.098 87.1514 260.646 87.3071C261.201 87.4365 261.743 87.6187 262.274 87.8537C262.81 88.0623 263.195 88.2634 263.428 88.4571C263.548 88.5407 263.674 88.5979 263.806 88.6287C263.938 88.6595 264.054 88.7004 264.153 88.7515C264.369 88.6625 264.543 88.4525 264.676 88.1214C264.841 87.7701 264.972 87.5081 265.068 87.3355C264.876 86.8451 264.729 86.4626 264.626 86.1879C264.522 85.9132 264.183 85.6949 263.608 85.533C263.298 85.4326 262.987 85.3323 262.676 85.232C262.365 85.1317 262.045 85.071 261.716 85.0499C261.557 85.0129 261.228 84.9918 260.728 84.9866C260.26 84.9611 259.79 84.9489 259.316 84.9498C258.842 84.9508 258.52 84.9592 258.349 84.9751C257.949 85.0209 257.542 85.0932 257.129 85.1918C256.749 85.2703 256.358 85.3324 255.958 85.3782C255.675 85.3959 255.493 85.5205 255.411 85.7521C255.329 85.9837 255.316 86.2174 255.373 86.4534C255.476 86.7281 255.605 87.0089 255.761 87.2959C255.923 87.5565 256.069 87.8273 256.198 88.1081C256.328 88.389 256.48 88.8701 256.655 89.5516C256.863 90.2128 257.015 90.8749 257.111 91.5379C257.207 92.2009 257.166 92.6786 256.986 92.9709C256.708 92.8503 256.45 92.7623 256.212 92.7069C256.007 92.6312 255.753 92.5859 255.45 92.5709C254.789 92.7788 254.062 93.2082 253.27 93.859C252.477 94.5097 251.694 95.3018 250.919 96.2353C250.177 97.1484 249.505 98.1197 248.903 99.1491ZM250.109 102.397C250.336 101.781 250.7 101.058 251.2 100.228C251.706 99.371 252.256 98.5661 252.849 97.8132C253.475 97.0401 254.065 96.4813 254.619 96.137C254.879 95.975 255.207 95.7033 255.602 95.322C255.998 94.9407 256.239 94.621 256.327 94.363C256.631 94.8516 256.704 95.4953 256.546 96.2939C256.42 97.0722 256.182 97.8524 255.833 98.6343C255.516 99.396 255.199 99.9767 254.883 100.376C254.761 100.543 254.632 100.736 254.498 100.955C254.396 101.154 254.294 101.353 254.191 101.552C253.68 102.073 253.253 102.531 252.911 102.924C252.595 103.324 252.252 103.718 251.883 104.105C251.52 104.466 251.014 104.905 250.365 105.422C250.263 105.259 250.159 105.11 250.051 104.973C249.95 104.81 249.846 104.661 249.738 104.524C249.75 103.998 249.764 103.639 249.781 103.448C249.83 103.237 249.939 102.886 250.109 102.397ZM259.877 108.977C259.704 108.881 259.466 108.77 259.161 108.643C258.856 108.516 258.587 108.356 258.354 108.163C258.153 107.949 258.08 107.723 258.136 107.485C258.185 107.274 258.241 107.092 258.305 106.94C258.401 106.767 258.543 106.633 258.733 106.538C258.771 106.491 258.794 106.455 258.8 106.428C258.806 106.402 258.826 106.379 258.858 106.358C258.889 106.226 258.89 106.101 258.862 105.983C258.834 105.865 258.865 105.733 258.954 105.587C259.128 105.321 259.263 105.102 259.359 104.929C259.487 104.736 259.588 104.482 259.662 104.165C259.674 104.112 259.687 104.059 259.699 104.006C259.718 103.927 259.746 103.864 259.785 103.817C260.132 103.285 260.442 102.731 260.716 102.154C260.99 101.578 261.323 101.043 261.717 100.549C262.194 99.9366 262.813 99.1339 263.573 98.1415C264.34 97.1227 265.006 96.1778 265.571 95.307C265.745 95.041 265.906 94.8838 266.057 94.8354C266.24 94.7667 266.421 94.7671 266.6 94.8366C266.911 94.937 267.185 95.1958 267.421 95.6131C267.665 96.004 267.838 96.3368 267.941 96.6115C267.559 97.0518 267.104 97.5722 266.574 98.1728C266.077 98.7531 265.595 99.3233 265.131 99.8833C264.698 100.423 264.37 100.876 264.146 101.241C264.509 101.354 264.945 101.455 265.453 101.546C265.994 101.616 266.509 101.737 266.998 101.906C267.567 102.095 268.082 102.215 268.544 102.267C269.005 102.319 269.522 102.37 270.096 102.42C270.32 102.054 270.557 101.636 270.806 101.165C271.081 100.7 271.36 100.222 271.642 99.7305C271.95 99.2453 272.288 98.809 272.657 98.4215C273.026 98.034 273.436 97.7676 273.888 97.6223C274.112 97.6187 274.27 97.6557 274.363 97.7332C274.463 97.7842 274.59 97.8973 274.744 98.0725C275.026 98.4168 275.227 98.6866 275.349 98.882C275.503 99.0572 275.532 99.2311 275.436 99.4037C275.34 99.5763 275.098 99.84 274.709 100.195C274.456 100.442 274.244 100.755 274.072 101.133C273.907 101.484 273.687 101.767 273.414 101.982C273.349 102.023 273.188 102.236 272.931 102.621C272.674 103.007 272.369 103.479 272.016 104.037C271.663 104.596 271.31 105.154 270.957 105.712C270.604 106.27 270.296 106.756 270.033 107.168C269.796 107.586 269.668 107.835 269.65 107.914C269.543 108.251 269.407 108.595 269.242 108.947C269.083 109.272 268.96 109.619 268.874 109.989C268.824 110.2 268.721 110.343 268.565 110.418C268.441 110.473 268.286 110.479 268.101 110.435C267.837 110.374 267.562 110.24 267.276 110.034C266.989 109.828 266.779 109.654 266.646 109.511C266.558 109.407 266.497 109.254 266.461 109.05C266.451 108.853 266.448 108.685 266.453 108.547C266.765 107.924 267.095 107.346 267.442 106.814C267.821 106.262 268.177 105.691 268.51 105.1C268.587 105.006 268.638 104.907 268.663 104.801C268.688 104.695 268.686 104.584 268.658 104.466C267.817 104.13 266.938 103.898 266.021 103.767C265.105 103.637 264.204 103.497 263.32 103.346C263.158 103.448 262.925 103.728 262.623 104.187C262.354 104.625 262.092 105.093 261.836 105.591C261.587 106.062 261.392 106.42 261.251 106.666C261.235 106.857 261.147 107.115 260.987 107.44C260.828 107.765 260.642 108.083 260.43 108.396C260.224 108.682 260.04 108.876 259.877 108.977ZM281.307 113.473C280.642 113.819 279.93 113.946 279.172 113.852C278.44 113.765 277.765 113.496 277.146 113.046C276.533 112.569 276.076 111.961 275.774 111.222C275.461 110.536 275.324 109.808 275.365 109.038C275.411 108.241 275.629 107.247 276.018 106.057C276.337 105.045 276.908 104.092 277.729 103.197C278.557 102.276 279.475 101.501 280.485 100.874C281.521 100.252 282.486 99.8779 283.379 99.7518C283.837 99.5801 284.195 99.5382 284.453 99.6262C284.743 99.694 285.173 99.822 285.742 100.01C286.331 100.231 286.752 100.455 287.006 100.681C287.286 100.913 287.487 101.183 287.611 101.491C287.914 101.979 288.086 102.437 288.126 102.864C288.172 103.265 288.152 103.65 288.065 104.02C287.824 104.576 287.262 105.197 286.378 105.882C285.526 106.547 284.498 107.017 283.291 107.293C282.667 107.343 282.015 107.274 281.334 107.087C280.653 106.901 280.126 106.597 279.75 106.175C279.298 105.847 278.958 105.809 278.732 106.063C278.512 106.29 278.213 106.917 277.834 107.942C277.495 108.922 277.401 109.68 277.555 110.217C277.714 110.727 278.009 111.075 278.44 111.259C278.943 111.487 279.334 111.662 279.613 111.783C279.923 111.883 280.334 111.854 280.845 111.694C281.329 111.529 281.627 111.445 281.739 111.443C281.857 111.415 281.948 111.381 282.014 111.34C282.111 111.279 282.323 111.148 282.649 110.945C282.877 110.803 283.053 110.705 283.177 110.65C283.307 110.569 283.438 110.544 283.571 110.575C283.703 110.606 283.806 110.7 283.881 110.856C283.962 110.987 284.049 111.091 284.142 111.168C284.407 111.23 284.423 111.4 284.19 111.68C283.984 111.967 283.617 112.285 283.09 112.635C282.569 112.96 281.975 113.239 281.307 113.473ZM283.226 105.064C283.548 104.999 283.895 104.885 284.267 104.722C284.646 104.531 284.974 104.316 285.254 104.074C285.565 103.813 285.746 103.576 285.795 103.365C285.881 102.995 285.78 102.651 285.492 102.334C285.211 101.989 284.705 101.83 283.975 101.854C283.666 101.866 283.289 101.987 282.846 102.218C282.408 102.422 281.974 102.669 281.545 102.959C281.142 103.255 280.8 103.523 280.521 103.765C280.269 104.012 280.163 104.168 280.203 104.233C280.252 104.384 280.451 104.542 280.803 104.708C281.16 104.847 281.567 104.955 282.022 105.034C282.503 105.118 282.905 105.128 283.226 105.064ZM290.671 117.244C289.509 116.973 288.66 116.316 288.124 115.271C287.593 114.201 287.495 113.008 287.83 111.694C288.104 110.755 288.526 109.781 289.096 108.772C289.698 107.743 290.394 106.791 291.182 105.916C291.977 105.015 292.794 104.259 293.633 103.647C294.472 103.035 295.285 102.654 296.072 102.503C296.367 102.432 296.669 102.391 296.978 102.38C297.314 102.375 297.64 102.409 297.957 102.483C298.248 102.551 298.539 102.674 298.831 102.854C299.13 103.007 299.373 103.161 299.559 103.316C299.965 103.606 300.256 103.91 300.432 104.23C300.609 104.549 300.724 105.008 300.78 105.606C300.742 106.126 300.699 106.492 300.649 106.703C300.6 106.915 300.46 107.216 300.229 107.608C299.691 108.485 299.09 109.209 298.428 109.778C297.766 110.348 296.957 110.772 296.001 111.051C295.759 111.133 295.483 111.18 295.174 111.192C294.898 111.183 294.614 111.145 294.324 111.077C293.795 110.954 293.302 110.741 292.843 110.44C292.417 110.117 292.105 109.724 291.907 109.26L291.703 108.879L291.51 109.168C291.08 109.819 290.715 110.431 290.414 111.001C290.141 111.578 289.945 112.117 289.828 112.619C289.754 112.936 289.71 113.246 289.695 113.549C289.706 113.858 289.754 114.134 289.836 114.376C289.905 114.559 290.049 114.718 290.268 114.852C290.52 114.967 290.791 115.058 291.082 115.126C291.267 115.169 291.452 115.212 291.637 115.255C291.854 115.278 292.065 115.271 292.268 115.235C292.754 115.181 293.151 115.093 293.458 114.969C293.792 114.852 294.128 114.722 294.468 114.578L294.645 114.536L294.606 114.527C294.959 114.442 295.274 114.348 295.548 114.245C295.85 114.149 296 114.1 296 114.1C296.106 114.125 296.227 114.083 296.363 113.976C296.599 113.919 296.854 114.021 297.128 114.28C297.428 114.545 297.545 114.822 297.477 115.113C297.42 115.239 297.251 115.422 296.972 115.664C296.699 115.879 296.403 116.074 296.084 116.25C295.79 116.432 295.562 116.518 295.397 116.508C295.364 116.528 295.26 116.559 295.083 116.602C294.912 116.618 294.794 116.646 294.729 116.686L294.768 116.695C294.457 116.957 294.182 117.06 293.944 117.005L293.627 116.931C293.478 117.091 293.086 117.222 292.449 117.324C291.819 117.4 291.226 117.374 290.671 117.244ZM294.487 108.943C294.963 109.054 295.403 109.017 295.808 108.833C296.245 108.629 296.636 108.386 296.981 108.104C297.675 107.514 298.139 106.898 298.372 106.256C298.638 105.594 298.67 105.1 298.467 104.774C298.327 104.658 298.191 104.584 298.059 104.554C297.96 104.503 297.726 104.49 297.358 104.515C297.108 104.513 296.731 104.634 296.229 104.879C295.726 105.124 295.214 105.408 294.693 105.732C294.198 106.062 293.811 106.348 293.532 106.59L292.823 107.301C293.053 107.272 293.26 107.278 293.445 107.321C293.662 107.344 293.778 107.385 293.792 107.444C293.737 107.682 293.724 107.915 293.754 108.145C293.817 108.355 293.902 108.528 294.009 108.664C294.143 108.807 294.302 108.9 294.487 108.943Z" fill="#48371D"/>
<path d="M216.322 56.7053C234.749 53.6341 254.24 45.4122 265.47 29.9225C267.98 26.4605 272.083 22.7246 273.036 18.4362C273.425 16.6858 273.996 14.4282 274.968 12.9692" stroke="#556832" stroke-width="3" stroke-linecap="round"/>
<path d="M262.046 18.9334C262.981 14.2584 270.454 5.62361 274.195 2.25623C275.801 0.810974 285.133 17.279 287.89 18.9334" stroke="#556832" stroke-width="3" stroke-linecap="round"/>
</svg>
